<svg width="845" height="215" viewBox="35 130 845 215" version="1.1" xmlns="http://www.w3.org/2000/svg">
<g id="#ffffffff">
<path fill="#ffffff" opacity="1.00" d=" M 0.00 0.00 L 872.10 0.00 C 869.02 5.88 868.28 12.56 867.18 19.00 C 867.18 22.59 869.13 25.99 871.98 28.11 C 873.99 30.14 877.04 28.17 879.06 27.13 C 881.97 23.97 886.00 22.07 888.54 18.53 C 893.96 11.78 900.76 6.34 906.61 0.00 L 971.00 0.00 L 971.00 512.00 L 0.00 512.00 L 0.00 0.00 M 112.13 72.34 C 98.61 75.58 84.79 77.38 70.97 78.69 C 68.60 79.07 65.47 78.31 63.95 80.67 C 76.97 81.04 90.00 80.92 103.02 81.24 C 104.84 81.24 106.70 81.34 108.46 80.77 C 121.50 81.19 134.59 81.18 147.63 80.78 C 151.85 81.79 156.48 80.80 160.84 80.67 C 161.49 74.04 155.36 68.89 149.36 67.53 C 136.67 64.35 124.54 70.95 112.13 72.34 M 135.18 138.16 C 137.45 139.40 139.88 140.31 142.24 141.36 C 132.95 140.14 123.30 144.80 118.29 152.68 C 121.16 151.07 124.04 149.47 127.14 148.32 C 118.91 154.08 113.52 163.82 114.07 173.98 C 114.48 190.52 129.13 202.08 131.40 218.15 C 135.47 232.10 128.32 245.68 126.80 259.42 C 128.18 259.27 129.56 259.06 130.92 258.79 C 131.45 256.54 131.75 254.25 132.15 251.98 C 134.75 239.23 142.79 228.12 144.05 215.02 C 145.00 206.50 142.58 197.93 138.38 190.55 C 136.24 186.39 132.99 182.80 131.61 178.27 C 130.49 175.02 131.76 171.66 131.74 168.35 C 136.57 163.65 143.88 163.59 149.71 166.35 C 151.29 168.09 153.14 169.66 155.34 170.56 C 162.31 173.70 169.19 177.08 176.09 180.38 C 177.87 180.86 178.29 178.82 177.14 177.90 C 171.63 172.49 165.63 167.55 160.67 161.62 L 160.27 161.66 C 159.55 155.85 157.37 150.08 153.11 145.93 C 148.66 140.83 141.80 138.44 135.18 138.16 M 787.11 149.33 C 778.62 151.34 769.82 155.58 765.74 163.73 C 759.08 176.61 760.74 191.59 760.50 205.58 C 775.32 205.62 790.15 205.58 804.98 205.60 C 805.10 198.72 804.81 191.83 805.16 184.96 C 805.51 181.88 805.55 178.21 808.11 176.03 C 811.60 173.50 817.71 174.18 819.47 178.51 C 821.19 183.16 820.85 188.22 820.90 193.09 C 820.81 199.27 821.37 205.61 819.53 211.61 C 818.54 214.98 815.57 217.70 812.02 218.01 C 806.14 218.83 800.17 218.73 794.25 218.86 C 794.35 227.46 794.28 236.06 794.28 244.67 C 800.73 245.21 807.61 244.53 813.65 247.26 C 820.17 250.91 820.70 259.33 820.90 265.97 C 820.67 276.96 821.61 288.09 819.71 298.97 C 818.94 304.33 811.89 305.90 807.85 303.20 C 805.22 300.97 805.54 297.13 805.16 294.03 C 804.80 281.96 805.10 269.88 804.99 257.80 C 790.17 257.79 775.35 257.81 760.52 257.79 C 760.49 270.15 760.24 282.56 761.64 294.86 C 762.36 300.65 763.30 306.61 766.27 311.73 C 769.75 317.79 775.38 322.32 781.43 325.64 C 792.33 331.31 804.98 332.22 817.05 331.94 C 830.39 331.49 844.82 328.28 854.22 318.10 C 863.07 308.37 864.56 294.54 865.20 281.97 C 865.40 269.31 865.63 256.41 862.60 244.04 C 860.59 235.80 853.15 230.30 845.53 227.57 C 851.77 224.18 858.09 219.73 860.97 212.98 C 863.57 206.33 863.76 199.03 863.69 191.97 C 863.52 180.15 860.34 167.76 851.99 159.00 C 844.66 151.57 833.96 149.08 823.95 147.83 C 811.70 146.59 799.16 146.55 787.11 149.33 M 182.53 148.14 C 193.23 150.94 203.45 155.91 211.77 163.27 C 224.34 174.08 232.56 189.54 235.06 205.89 C 237.25 209.59 238.78 213.62 239.35 217.90 C 240.46 219.55 241.93 220.91 243.38 222.25 C 241.54 203.15 234.40 184.09 221.03 170.06 C 210.90 159.05 197.43 150.57 182.53 148.14 M 422.80 150.52 C 422.80 176.70 422.80 202.88 422.80 229.07 C 422.92 250.09 422.44 271.13 423.63 292.13 C 423.96 300.37 427.07 308.40 432.26 314.80 C 440.39 324.51 452.87 329.51 465.13 331.38 C 477.67 333.01 490.88 332.62 502.69 327.70 C 514.32 322.96 523.37 312.54 526.79 300.51 C 528.36 293.49 528.31 286.23 528.58 279.08 C 528.60 236.22 528.60 193.36 528.58 150.49 C 513.16 150.50 497.74 150.51 482.32 150.49 C 482.27 195.99 482.32 241.50 482.29 287.00 C 482.13 290.73 482.12 294.54 481.17 298.17 C 480.28 302.08 474.98 303.11 472.00 301.03 C 469.90 299.38 469.85 296.47 469.52 294.04 C 468.80 284.36 469.20 274.65 469.09 264.95 C 469.00 226.79 469.28 188.60 468.96 150.46 C 453.57 150.56 438.18 150.45 422.80 150.52 M 299.17 150.51 C 299.18 209.84 299.17 269.17 299.18 328.49 C 320.12 328.44 341.07 328.63 362.01 328.40 C 371.02 328.04 380.19 327.97 388.94 325.55 C 395.95 323.48 401.59 317.78 403.84 310.86 C 407.83 298.99 406.63 286.30 406.82 274.00 C 406.95 264.29 406.79 253.92 401.77 245.28 C 397.06 237.68 388.05 234.42 379.77 232.43 C 387.59 230.27 397.04 227.81 400.72 219.73 C 404.05 211.93 403.67 203.25 403.53 194.96 C 403.04 186.66 402.09 178.14 398.38 170.58 C 394.21 162.56 386.78 156.16 377.99 153.80 C 367.93 150.99 357.41 150.80 347.04 150.50 C 331.09 150.50 315.13 150.49 299.17 150.51 M 546.50 150.50 C 546.50 209.83 546.50 269.16 546.50 328.49 C 561.94 328.50 577.38 328.51 592.83 328.49 C 592.83 304.60 592.81 280.72 592.83 256.83 C 604.18 256.70 615.90 257.67 626.82 253.86 C 633.94 251.51 640.72 246.60 643.27 239.29 C 646.18 230.86 646.18 221.80 646.21 212.98 C 646.09 201.29 646.67 189.51 644.83 177.92 C 643.55 169.42 638.75 161.13 630.97 157.07 C 620.01 151.13 607.17 150.89 595.02 150.51 C 578.85 150.48 562.68 150.50 546.50 150.50 M 651.50 150.50 C 651.50 162.40 651.49 174.30 651.51 186.20 C 660.63 186.21 669.77 186.20 678.90 186.20 C 678.96 233.64 678.81 281.08 678.97 328.51 C 694.39 328.46 709.80 328.56 725.21 328.46 C 725.19 281.04 725.20 233.63 725.21 186.21 C 734.32 186.20 743.44 186.19 752.56 186.21 C 752.62 174.31 752.59 162.40 752.58 150.50 C 718.89 150.51 685.20 150.49 651.50 150.50 M 80.40 157.75 C 81.03 158.34 81.65 158.96 82.25 159.59 L 82.18 158.42 C 84.41 156.38 86.96 154.74 89.23 152.75 C 85.95 153.81 83.74 157.60 80.40 157.75 M 80.22 158.11 C 79.42 159.61 78.11 160.71 76.89 161.85 C 64.94 172.62 56.45 186.97 51.82 202.32 C 53.94 199.61 56.25 197.09 58.74 194.73 C 62.75 181.88 69.98 169.96 79.97 160.89 C 80.03 160.20 80.16 158.81 80.22 158.11 M 62.45 205.08 C 63.44 219.72 71.92 232.75 82.28 242.67 C 85.53 245.94 89.46 248.38 92.84 251.48 C 93.42 250.92 94.00 250.36 94.58 249.80 L 93.32 249.72 C 72.14 229.49 66.41 194.62 80.80 168.95 C 68.57 176.32 61.27 190.88 62.45 205.08 M 219.99 182.79 C 227.23 200.99 224.98 222.23 215.25 239.08 C 215.79 239.53 216.87 240.42 217.40 240.87 C 223.01 232.18 227.36 222.47 228.53 212.12 C 229.88 201.77 227.31 190.49 219.99 182.79 M 53.31 229.70 C 57.94 241.67 68.84 250.07 80.67 254.26 C 89.19 257.24 98.20 259.54 107.29 259.03 C 102.58 256.87 98.18 254.07 94.23 250.70 L 94.60 253.29 C 93.56 252.02 92.08 251.29 90.73 250.43 C 80.18 243.84 71.08 234.71 65.27 223.66 C 61.04 215.65 58.50 206.41 59.80 197.33 C 50.23 204.86 48.61 219.00 53.31 229.70 M 217.90 241.04 C 221.17 243.25 224.24 245.75 227.11 248.46 C 236.90 236.79 241.01 218.28 231.52 205.23 C 230.65 218.18 225.66 230.69 217.90 241.04 M 47.34 217.53 C 46.50 224.35 46.49 231.28 47.52 238.08 C 49.68 231.56 50.89 223.66 47.34 217.53 M 239.46 221.67 C 239.24 231.99 235.27 242.09 228.73 250.05 C 231.88 253.71 234.56 257.74 237.64 261.46 C 240.95 255.78 243.50 249.59 244.55 243.07 C 245.80 235.64 244.03 227.70 239.46 221.67 M 60.16 265.84 C 79.15 284.34 114.02 282.15 130.32 261.18 C 125.20 260.83 120.07 261.49 114.96 261.00 C 111.61 260.73 108.44 258.81 105.03 259.57 C 99.98 260.40 94.89 259.56 89.90 258.72 C 75.62 256.24 62.16 249.35 51.82 239.19 C 49.46 248.77 53.13 259.11 60.16 265.84 M 50.86 257.88 C 51.65 264.82 54.49 271.32 57.39 277.61 C 60.08 283.08 62.93 288.61 67.14 293.08 C 77.17 296.29 88.06 294.50 98.04 291.92 C 96.37 290.67 94.69 289.43 93.00 288.21 C 99.59 285.25 105.96 281.76 111.82 277.54 C 100.02 281.54 86.88 282.20 75.09 277.80 C 64.92 274.36 56.25 267.14 50.86 257.88 M 98.18 288.69 C 101.61 291.31 105.73 293.00 110.05 293.33 C 120.29 294.31 130.45 290.53 138.59 284.50 C 138.67 284.14 138.83 283.43 138.91 283.07 C 134.43 277.85 131.42 271.11 131.31 264.17 C 121.98 274.40 110.42 282.35 98.18 288.69 M 221.80 275.80 C 215.48 281.80 210.16 289.11 202.32 293.29 C 190.09 299.99 175.07 299.99 162.02 295.76 C 154.44 304.19 145.56 311.68 135.06 316.18 C 121.62 322.14 105.82 323.57 91.93 318.25 C 108.01 328.09 127.02 333.94 146.00 332.88 C 156.07 333.45 166.09 331.57 175.70 328.69 C 196.69 322.43 215.57 309.26 228.43 291.51 C 233.20 284.02 237.88 276.37 240.74 267.91 C 233.76 267.98 226.63 270.64 221.80 275.80 M 125.88 293.79 C 118.06 295.62 111.34 300.37 103.60 302.55 C 109.40 306.02 116.36 306.64 122.97 306.73 C 135.70 306.51 148.66 302.58 158.64 294.52 C 152.69 292.29 146.93 289.41 141.88 285.53 C 136.99 289.06 131.59 291.85 125.88 293.79 M 68.84 295.42 C 70.77 298.35 73.27 301.03 76.55 302.43 C 84.34 306.21 93.29 306.17 101.66 304.81 C 100.18 303.90 98.67 303.03 97.16 302.17 C 102.45 300.55 107.65 298.64 112.61 296.19 C 108.17 296.02 103.75 295.06 99.83 292.93 C 89.88 296.07 79.15 297.56 68.84 295.42 M 104.17 306.11 C 96.52 307.79 88.64 307.64 80.93 306.46 C 84.20 309.73 87.35 313.40 91.68 315.28 C 98.94 318.61 107.13 319.60 115.04 318.92 C 129.16 317.61 142.82 311.29 152.93 301.35 C 138.13 309.00 120.10 312.03 104.17 306.11 M 536.24 417.56 C 531.79 417.78 526.80 419.61 524.55 423.71 C 523.44 425.67 521.50 427.53 521.88 429.98 C 521.74 437.32 527.70 443.50 534.28 445.89 C 543.72 449.14 554.02 448.90 563.65 446.62 C 565.96 445.19 568.30 442.92 568.22 439.99 C 568.62 434.45 563.42 431.01 562.39 425.86 C 559.85 423.31 556.61 421.42 553.75 419.22 C 548.21 417.00 542.11 416.67 536.24 417.56 Z" />
<path fill="#ffffff" opacity="1.00" d=" M 138.10 154.58 C 140.91 155.72 143.92 155.24 146.86 155.30 C 149.83 155.73 151.21 158.65 152.96 160.71 C 151.19 160.93 149.44 161.31 147.69 161.63 C 143.17 161.62 141.08 157.18 138.10 154.58 Z" />
<path fill="#ffffff" opacity="1.00" d=" M 345.51 180.98 C 348.90 181.18 352.47 180.95 355.68 182.25 C 360.23 185.11 360.43 191.15 360.50 195.96 C 360.33 202.90 361.05 210.14 358.83 216.83 C 356.18 221.46 349.96 220.18 345.51 220.51 C 345.49 207.33 345.50 194.16 345.51 180.98 Z" />
<path fill="#ffffff" opacity="1.00" d=" M 592.83 180.97 C 597.10 181.24 602.46 180.93 605.40 184.65 C 608.34 189.93 607.27 196.25 607.50 202.03 C 607.26 208.66 608.31 215.63 605.83 221.96 C 603.52 226.75 597.37 226.56 592.84 226.37 C 592.81 211.24 592.82 196.10 592.83 180.97 Z" />
<path fill="#ffffff" opacity="1.00" d=" M 345.58 248.15 C 349.98 248.88 355.89 247.98 358.87 252.00 C 361.57 259.00 360.12 266.71 360.50 274.03 C 360.14 280.79 361.65 288.16 358.36 294.40 C 355.18 297.90 349.84 297.65 345.51 298.05 C 345.54 281.42 345.40 264.78 345.58 248.15 Z" />
</g>
<g id="#f9f9f9f9">
<path fill="#f9f9f9" opacity="0.98" d=" M 872.10 0.00 L 906.61 0.00 C 900.76 6.34 893.96 11.78 888.54 18.53 C 886.00 22.07 881.97 23.97 879.06 27.13 C 877.04 28.17 873.99 30.14 871.98 28.11 C 869.13 25.99 867.18 22.59 867.18 19.00 C 868.28 12.56 869.02 5.88 872.10 0.00 Z" />
</g>
<g id="#f1f1f1f1">
<path fill="#f1f1f1" opacity="0.95" d=" M 112.13 72.34 C 124.54 70.95 136.67 64.35 149.36 67.53 C 155.36 68.89 161.49 74.04 160.84 80.67 C 156.48 80.80 151.85 81.79 147.63 80.78 C 145.26 79.17 142.96 77.11 139.99 76.78 C 132.60 75.80 125.25 77.56 117.95 78.53 C 114.71 78.93 111.55 79.74 108.46 80.77 C 106.70 81.34 104.84 81.24 103.02 81.24 C 90.00 80.92 76.97 81.04 63.95 80.67 C 65.47 78.31 68.60 79.07 70.97 78.69 C 84.79 77.38 98.61 75.58 112.13 72.34 Z" />
</g>
<g id="#e1e1e1e1">
<path fill="#e1e1e1" opacity="0.88" d=" M 117.95 78.53 C 125.25 77.56 132.60 75.80 139.99 76.78 C 142.96 77.11 145.26 79.17 147.63 80.78 C 134.59 81.18 121.50 81.19 108.46 80.77 C 111.55 79.74 114.71 78.93 117.95 78.53 Z" />
</g>
<g id="#4b3e91ff">
<path fill="#4b3e91" opacity="1.00" d=" M 135.18 138.16 C 141.80 138.44 148.66 140.83 153.11 145.93 C 157.37 150.08 159.55 155.85 160.27 161.66 C 157.76 162.27 155.29 161.67 152.96 160.71 C 151.21 158.65 149.83 155.73 146.86 155.30 C 143.92 155.24 140.91 155.72 138.10 154.58 C 141.08 157.18 143.17 161.62 147.69 161.63 C 148.34 163.21 148.99 164.80 149.71 166.35 C 143.88 163.59 136.57 163.65 131.74 168.35 C 126.78 172.69 125.09 179.66 125.37 186.02 C 125.92 195.46 129.78 204.27 131.41 213.51 C 131.75 215.04 131.50 216.61 131.40 218.15 C 129.13 202.08 114.48 190.52 114.07 173.98 C 113.52 163.82 118.91 154.08 127.14 148.32 C 124.04 149.47 121.16 151.07 118.29 152.68 C 123.30 144.80 132.95 140.14 142.24 141.36 C 139.88 140.31 137.45 139.40 135.18 138.16 Z" />
<path fill="#4b3e91" opacity="1.00" d=" M 80.40 157.75 C 83.74 157.60 85.95 153.81 89.23 152.75 C 86.96 154.74 84.41 156.38 82.18 158.42 L 82.25 159.59 C 81.65 158.96 81.03 158.34 80.40 157.75 Z" />
</g>
<g id="#2f256cff">
<path fill="#2f256c" opacity="1.00" d=" M 787.11 149.33 C 799.16 146.55 811.70 146.59 823.95 147.83 C 833.96 149.08 844.66 151.57 851.99 159.00 C 860.34 167.76 863.52 180.15 863.69 191.97 C 863.76 199.03 863.57 206.33 860.97 212.98 C 858.09 219.73 851.77 224.18 845.53 227.57 C 853.15 230.30 860.59 235.80 862.60 244.04 C 865.63 256.41 865.40 269.31 865.20 281.97 C 864.56 294.54 863.07 308.37 854.22 318.10 C 844.82 328.28 830.39 331.49 817.05 331.94 C 804.98 332.22 792.33 331.31 781.43 325.64 C 775.38 322.32 769.75 317.79 766.27 311.73 C 763.30 306.61 762.36 300.65 761.64 294.86 C 760.24 282.56 760.49 270.15 760.52 257.79 C 775.35 257.81 790.17 257.79 804.99 257.80 C 805.10 269.88 804.80 281.96 805.16 294.03 C 805.54 297.13 805.22 300.97 807.85 303.20 C 811.89 305.90 818.94 304.33 819.71 298.97 C 821.61 288.09 820.67 276.96 820.90 265.97 C 820.70 259.33 820.17 250.91 813.65 247.26 C 807.61 244.53 800.73 245.21 794.28 244.67 C 794.28 236.06 794.35 227.46 794.25 218.86 C 800.17 218.73 806.14 218.83 812.02 218.01 C 815.57 217.70 818.54 214.98 819.53 211.61 C 821.37 205.61 820.81 199.27 820.90 193.09 C 820.85 188.22 821.19 183.16 819.47 178.51 C 817.71 174.18 811.60 173.50 808.11 176.03 C 805.55 178.21 805.51 181.88 805.16 184.96 C 804.81 191.83 805.10 198.72 804.98 205.60 C 790.15 205.58 775.32 205.62 760.50 205.58 C 760.74 191.59 759.08 176.61 765.74 163.73 C 769.82 155.58 778.62 151.34 787.11 149.33 Z" />
<path fill="#2f256c" opacity="1.00" d=" M 422.80 150.52 C 438.18 150.45 453.57 150.56 468.96 150.46 C 469.28 188.60 469.00 226.79 469.09 264.95 C 469.20 274.65 468.80 284.36 469.52 294.04 C 469.85 296.47 469.90 299.38 472.00 301.03 C 474.98 303.11 480.28 302.08 481.17 298.17 C 482.12 294.54 482.13 290.73 482.29 287.00 C 482.32 241.50 482.27 195.99 482.32 150.49 C 497.74 150.51 513.16 150.50 528.58 150.49 C 528.60 193.36 528.60 236.22 528.58 279.08 C 528.31 286.23 528.36 293.49 526.79 300.51 C 523.37 312.54 514.32 322.96 502.69 327.70 C 490.88 332.62 477.67 333.01 465.13 331.38 C 452.87 329.51 440.39 324.51 432.26 314.80 C 427.07 308.40 423.96 300.37 423.63 292.13 C 422.44 271.13 422.92 250.09 422.80 229.07 C 422.80 202.88 422.80 176.70 422.80 150.52 Z" />
<path fill="#2f256c" opacity="1.00" d=" M 299.17 150.51 C 315.13 150.49 331.09 150.50 347.04 150.50 C 357.41 150.80 367.93 150.99 377.99 153.80 C 386.78 156.16 394.21 162.56 398.38 170.58 C 402.09 178.14 403.04 186.66 403.53 194.96 C 403.67 203.25 404.05 211.93 400.72 219.73 C 397.04 227.81 387.59 230.27 379.77 232.43 C 388.05 234.42 397.06 237.68 401.77 245.28 C 406.79 253.92 406.95 264.29 406.82 274.00 C 406.63 286.30 407.83 298.99 403.84 310.86 C 401.59 317.78 395.95 323.48 388.94 325.55 C 380.19 327.97 371.02 328.04 362.01 328.40 C 341.07 328.63 320.12 328.44 299.18 328.49 C 299.17 269.17 299.18 209.84 299.17 150.51 M 345.51 180.98 C 345.50 194.16 345.49 207.33 345.51 220.51 C 349.96 220.18 356.18 221.46 358.83 216.83 C 361.05 210.14 360.33 202.90 360.50 195.96 C 360.43 191.15 360.23 185.11 355.68 182.25 C 352.47 180.95 348.90 181.18 345.51 180.98 M 345.58 248.15 C 345.40 264.78 345.54 281.42 345.51 298.05 C 349.84 297.65 355.18 297.90 358.36 294.40 C 361.65 288.16 360.14 280.79 360.50 274.03 C 360.12 266.71 361.57 259.00 358.87 252.00 C 355.89 247.98 349.98 248.88 345.58 248.15 Z" />
<path fill="#2f256c" opacity="1.00" d=" M 546.50 150.50 C 562.68 150.50 578.85 150.48 595.02 150.51 C 607.17 150.89 620.01 151.13 630.97 157.07 C 638.75 161.13 643.55 169.42 644.83 177.92 C 646.67 189.51 646.09 201.29 646.21 212.98 C 646.18 221.80 646.18 230.86 643.27 239.29 C 640.72 246.60 633.94 251.51 626.82 253.86 C 615.90 257.67 604.18 256.70 592.83 256.83 C 592.81 280.72 592.83 304.60 592.83 328.49 C 577.38 328.51 561.94 328.50 546.50 328.49 C 546.50 269.16 546.50 209.83 546.50 150.50 M 592.83 180.97 C 592.82 196.10 592.81 211.24 592.84 226.37 C 597.37 226.56 603.52 226.75 605.83 221.96 C 608.31 215.63 607.26 208.66 607.50 202.03 C 607.27 196.25 608.34 189.93 605.40 184.65 C 602.46 180.93 597.10 181.24 592.83 180.97 Z" />
<path fill="#2f256c" opacity="1.00" d=" M 651.50 150.50 C 685.20 150.49 718.89 150.51 752.58 150.50 C 752.59 162.40 752.62 174.31 752.56 186.21 C 743.44 186.19 734.32 186.20 725.21 186.21 C 725.20 233.63 725.19 281.04 725.21 328.46 C 709.80 328.56 694.39 328.46 678.97 328.51 C 678.81 281.08 678.96 233.64 678.90 186.20 C 669.77 186.20 660.63 186.21 651.51 186.20 C 651.49 174.30 651.50 162.40 651.50 150.50 Z" />
</g>
<g id="#5f4d9dff">
<path fill="#5f4d9d" opacity="1.00" d=" M 182.53 148.14 C 197.43 150.57 210.90 159.05 221.03 170.06 C 234.40 184.09 241.54 203.15 243.38 222.25 C 241.93 220.91 240.46 219.55 239.35 217.90 C 238.78 213.62 237.25 209.59 235.06 205.89 C 232.56 189.54 224.34 174.08 211.77 163.27 C 203.45 155.91 193.23 150.94 182.53 148.14 Z" />
</g>
<g id="#a398cbff">
<path fill="#a398cb" opacity="1.00" d=" M 80.22 158.11 C 80.16 158.81 80.03 160.20 79.97 160.89 C 69.98 169.96 62.75 181.88 58.74 194.73 C 56.25 197.09 53.94 199.61 51.82 202.32 C 56.45 186.97 64.94 172.62 76.89 161.85 C 78.11 160.71 79.42 159.61 80.22 158.11 Z" />
</g>
<g id="#221450ff">
<path fill="#221450" opacity="1.00" d=" M 147.69 161.63 C 149.44 161.31 151.19 160.93 152.96 160.71 C 155.29 161.67 157.76 162.27 160.27 161.66 L 160.67 161.62 C 165.63 167.55 171.63 172.49 177.14 177.90 C 178.29 178.82 177.87 180.86 176.09 180.38 C 169.19 177.08 162.31 173.70 155.34 170.56 C 153.14 169.66 151.29 168.09 149.71 166.35 C 148.99 164.80 148.34 163.21 147.69 161.63 Z" />
</g>
<g id="#5e4c9eff">
<path fill="#5e4c9e" opacity="1.00" d=" M 62.45 205.08 C 61.27 190.88 68.57 176.32 80.80 168.95 C 66.41 194.62 72.14 229.49 93.32 249.72 L 94.58 249.80 C 94.00 250.36 93.42 250.92 92.84 251.48 C 89.46 248.38 85.53 245.94 82.28 242.67 C 71.92 232.75 63.44 219.72 62.45 205.08 Z" />
<path fill="#5e4c9e" opacity="1.00" d=" M 53.31 229.70 C 48.61 219.00 50.23 204.86 59.80 197.33 C 58.50 206.41 61.04 215.65 65.27 223.66 C 71.08 234.71 80.18 243.84 90.73 250.43 C 92.08 251.29 93.56 252.02 94.60 253.29 L 94.23 250.70 C 98.18 254.07 102.58 256.87 107.29 259.03 C 98.20 259.54 89.19 257.24 80.67 254.26 C 68.84 250.07 57.94 241.67 53.31 229.70 Z" />
<path fill="#5e4c9e" opacity="1.00" d=" M 98.18 288.69 C 110.42 282.35 121.98 274.40 131.31 264.17 C 131.42 271.11 134.43 277.85 138.91 283.07 C 138.83 283.43 138.67 284.14 138.59 284.50 C 130.45 290.53 120.29 294.31 110.05 293.33 C 105.73 293.00 101.61 291.31 98.18 288.69 Z" />
<path fill="#5e4c9e" opacity="1.00" d=" M 68.84 295.42 C 79.15 297.56 89.88 296.07 99.83 292.93 C 103.75 295.06 108.17 296.02 112.61 296.19 C 107.65 298.64 102.45 300.55 97.16 302.17 C 98.67 303.03 100.18 303.90 101.66 304.81 C 93.29 306.17 84.34 306.21 76.55 302.43 C 73.27 301.03 70.77 298.35 68.84 295.42 Z" />
</g>
<g id="#ccc9f2ff">
<path fill="#ccc9f2" opacity="1.00" d=" M 125.37 186.02 C 125.09 179.66 126.78 172.69 131.74 168.35 C 131.76 171.66 130.49 175.02 131.61 178.27 C 132.99 182.80 136.24 186.39 138.38 190.55 C 142.58 197.93 145.00 206.50 144.05 215.02 C 142.79 228.12 134.75 239.23 132.15 251.98 C 131.75 254.25 131.45 256.54 130.92 258.79 C 129.56 259.06 128.18 259.27 126.80 259.42 C 128.32 245.68 135.47 232.10 131.40 218.15 C 131.50 216.61 131.75 215.04 131.41 213.51 C 129.78 204.27 125.92 195.46 125.37 186.02 Z" />
</g>
<g id="#5f4fa0ff">
<path fill="#5f4fa0" opacity="1.00" d=" M 219.99 182.79 C 227.31 190.49 229.88 201.77 228.53 212.12 C 227.36 222.47 223.01 232.18 217.40 240.87 C 216.87 240.42 215.79 239.53 215.25 239.08 C 224.98 222.23 227.23 200.99 219.99 182.79 Z" />
</g>
<g id="#5e4d9eff">
<path fill="#5e4d9e" opacity="1.00" d=" M 217.90 241.04 C 225.66 230.69 230.65 218.18 231.52 205.23 C 241.01 218.28 236.90 236.79 227.11 248.46 C 224.24 245.75 221.17 243.25 217.90 241.04 Z" />
<path fill="#5e4d9e" opacity="1.00" d=" M 239.46 221.67 C 244.03 227.70 245.80 235.64 244.55 243.07 C 243.50 249.59 240.95 255.78 237.64 261.46 C 234.56 257.74 231.88 253.71 228.73 250.05 C 235.27 242.09 239.24 231.99 239.46 221.67 Z" />
</g>
<g id="#dcd8eaff">
<path fill="#dcd8ea" opacity="1.00" d=" M 47.34 217.53 C 50.89 223.66 49.68 231.56 47.52 238.08 C 46.49 231.28 46.50 224.35 47.34 217.53 Z" />
</g>
<g id="#5e4c9dff">
<path fill="#5e4c9d" opacity="1.00" d=" M 60.16 265.84 C 53.13 259.11 49.46 248.77 51.82 239.19 C 62.16 249.35 75.62 256.24 89.90 258.72 C 94.89 259.56 99.98 260.40 105.03 259.57 C 108.44 258.81 111.61 260.73 114.96 261.00 C 120.07 261.49 125.20 260.83 130.32 261.18 C 114.02 282.15 79.15 284.34 60.16 265.84 Z" />
<path fill="#5e4c9d" opacity="1.00" d=" M 125.88 293.79 C 131.59 291.85 136.99 289.06 141.88 285.53 C 146.93 289.41 152.69 292.29 158.64 294.52 C 148.66 302.58 135.70 306.51 122.97 306.73 C 116.36 306.64 109.40 306.02 103.60 302.55 C 111.34 300.37 118.06 295.62 125.88 293.79 Z" />
</g>
<g id="#5d4b9dff">
<path fill="#5d4b9d" opacity="1.00" d=" M 50.86 257.88 C 56.25 267.14 64.92 274.36 75.09 277.80 C 86.88 282.20 100.02 281.54 111.82 277.54 C 105.96 281.76 99.59 285.25 93.00 288.21 C 94.69 289.43 96.37 290.67 98.04 291.92 C 88.06 294.50 77.17 296.29 67.14 293.08 C 62.93 288.61 60.08 283.08 57.39 277.61 C 54.49 271.32 51.65 264.82 50.86 257.88 Z" />
</g>
<g id="#2f266dff">
<path fill="#2f266d" opacity="1.00" d=" M 221.80 275.80 C 226.63 270.64 233.76 267.98 240.74 267.91 C 237.88 276.37 233.20 284.02 228.43 291.51 C 215.57 309.26 196.69 322.43 175.70 328.69 C 166.09 331.57 156.07 333.45 146.00 332.88 C 127.02 333.94 108.01 328.09 91.93 318.25 C 105.82 323.57 121.62 322.14 135.06 316.18 C 145.56 311.68 154.44 304.19 162.02 295.76 C 175.07 299.99 190.09 299.99 202.32 293.29 C 210.16 289.11 215.48 281.80 221.80 275.80 Z" />
</g>
<g id="#5d4c9eff">
<path fill="#5d4c9e" opacity="1.00" d=" M 104.17 306.11 C 120.10 312.03 138.13 309.00 152.93 301.35 C 142.82 311.29 129.16 317.61 115.04 318.92 C 107.13 319.60 98.94 318.61 91.68 315.28 C 87.35 313.40 84.20 309.73 80.93 306.46 C 88.64 307.64 96.52 307.79 104.17 306.11 Z" />
</g>
<g id="#f4f4f4f5">
<path fill="#f4f4f4" opacity="0.96" d=" M 536.24 417.56 C 542.11 416.67 548.21 417.00 553.75 419.22 C 556.61 421.42 559.85 423.31 562.39 425.86 C 563.42 431.01 568.62 434.45 568.22 439.99 C 568.30 442.92 565.96 445.19 563.65 446.62 C 554.02 448.90 543.72 449.14 534.28 445.89 C 527.70 443.50 521.74 437.32 521.88 429.98 C 521.50 427.53 523.44 425.67 524.55 423.71 C 526.80 419.61 531.79 417.78 536.24 417.56 Z" />
</g>
</svg>
